<?xml version="1.0" encoding="UTF-8"?>
<svg id="Layer_2" data-name="Layer 2" xmlns="http://www.w3.org/2000/svg" viewBox="0 0 571.25 640.05">
  <defs>
    <style>
      .cls-1 {
        fill: #4f46e5;
      }
    </style>
  </defs>
  <g id="Layer_2-2" data-name="Layer 2">
    <g>
      <path class="cls-1" d="m201.54,532.33c-72.91-1.49-136.51-40.9-171.88-99.29-2.82-4.64-5.45-9.41-7.91-14.29C7.83,391.01,0,359.69,0,326.54v-13.41C0,200.21,90.91,108.53,203.54,107.29c.77-.01,1.55-.01,2.32-.01h229.42c3.46,17.23,18.7,30.23,36.95,30.23,18.25,0,33.49-12.99,36.95-30.23.49-2.41.74-4.91.74-7.46,0-20.83-16.88-37.69-37.69-37.69-18.42,0-33.74,13.2-37.02,30.67h-203.64c.15-2.32.4-4.61.72-6.89,3.06-22.01,13.29-41.69,28.26-56.67,3.09-3.09,6.37-5.97,9.83-8.62C287.19,7.69,308.25,0,331.1,0h138.87c55.11,0,99.8,44.69,99.8,99.81,0,2.51-.09,5-.28,7.46-1.8,24.58-12.53,46.69-28.95,63.1-18.06,18.06-43.01,29.24-70.56,29.24H148.91s-2.19,4.03-2.19,4.03l-7.61,14.04-52.48,89.92-8.13,13.92,8.13,13.92,55.43,94.98,8.13,13.92,51.36,87.99Z"/>
      <path class="cls-1" d="m471.46,640.05h-138.87c-32.55,0-51.76-6.61-65.06-27.3l-32.31-50.56-8.71-14.91-8.19-14.04-.5-.84-59.5-101.97-8.13-13.92-55.43-94.98,60.61-103.84h110.85s-52.48,89.92-52.48,89.92l-8.13,13.92,8.13,13.92,69.05,118.3,45.89,78.64.49.84,8.2,14.04h99.31c3.28,17.46,18.61,30.67,37.02,30.67,20.81,0,37.69-16.88,37.69-37.69,0-2.7-.28-5.34-.83-7.86-3.61-17.04-18.74-29.83-36.86-29.83-18.12,0-33.26,12.78-36.86,29.83h-91.9s-49.5-84.79-49.5-84.79c11.48-4.61,24.02-7.15,37.14-7.15h138.87c52.47,0,95.48,40.51,99.48,91.95.21,2.6.31,5.22.31,7.86,0,27.56-11.17,52.51-29.23,70.56-18.06,18.06-43.01,29.24-70.56,29.24Z"/>
    </g>
  </g>
</svg>