<?xml version="1.0" encoding="UTF-8"?>
<svg id="Layer_2" data-name="Layer 2" xmlns="http://www.w3.org/2000/svg" xmlns:xlink="http://www.w3.org/1999/xlink" viewBox="0 0 2845.09 2811.97">
  <defs>
    <style>
      .cls-1 {
        fill: url(#linear-gradient-2);
      }

      .cls-2 {
        fill: url(#linear-gradient-51);
      }

      .cls-3, .cls-4, .cls-5, .cls-6 {
        fill: #fff;
      }

      .cls-7 {
        fill: url(#linear-gradient-17);
      }

      .cls-8 {
        fill: url(#linear-gradient-43);
      }

      .cls-9 {
        fill: url(#linear-gradient-15);
      }

      .cls-10 {
        fill: url(#linear-gradient-58);
      }

      .cls-11 {
        fill: url(#linear-gradient-18);
      }

      .cls-12 {
        fill: url(#linear-gradient-56);
      }

      .cls-13 {
        fill: url(#linear-gradient-40);
      }

      .cls-14 {
        fill: url(#linear-gradient-52);
      }

      .cls-15 {
        fill: url(#linear-gradient-28);
      }

      .cls-16 {
        fill: url(#linear-gradient-14);
      }

      .cls-17 {
        fill: url(#linear-gradient-36);
      }

      .cls-18 {
        fill: url(#linear-gradient-20);
      }

      .cls-19 {
        fill: url(#linear-gradient-6);
      }

      .cls-20 {
        fill: url(#linear-gradient-53);
      }

      .cls-21 {
        fill: url(#linear-gradient-60);
      }

      .cls-22 {
        fill: url(#linear-gradient-35);
      }

      .cls-23 {
        fill: url(#linear-gradient-48);
      }

      .cls-24 {
        fill: url(#linear-gradient-32);
      }

      .cls-25 {
        fill: url(#linear-gradient-11);
      }

      .cls-26 {
        fill: url(#linear-gradient-50);
      }

      .cls-27 {
        fill: url(#linear-gradient-63);
      }

      .cls-28 {
        fill: url(#linear-gradient-39);
      }

      .cls-29 {
        fill: url(#linear-gradient-10);
      }

      .cls-30 {
        fill: #91b3fa;
      }

      .cls-31 {
        fill: url(#linear-gradient-59);
      }

      .cls-4 {
        opacity: .7;
      }

      .cls-32 {
        fill: url(#linear-gradient-49);
      }

      .cls-33 {
        fill: url(#linear-gradient-37);
      }

      .cls-34 {
        fill: url(#linear-gradient-16);
      }

      .cls-35 {
        fill: url(#linear-gradient-31);
      }

      .cls-36 {
        fill: #7d97f4;
      }

      .cls-37 {
        fill: url(#linear-gradient-61);
      }

      .cls-38 {
        fill: url(#linear-gradient-62);
      }

      .cls-39 {
        fill: url(#linear-gradient-41);
      }

      .cls-40 {
        fill: url(#linear-gradient-21);
      }

      .cls-41 {
        fill: url(#linear-gradient-25);
      }

      .cls-42 {
        fill: url(#linear-gradient-5);
      }

      .cls-43 {
        fill: url(#linear-gradient-64);
      }

      .cls-44 {
        fill: url(#linear-gradient-54);
      }

      .cls-45 {
        fill: url(#linear-gradient-45);
      }

      .cls-46 {
        fill: url(#linear-gradient-55);
      }

      .cls-47 {
        fill: url(#linear-gradient-34);
      }

      .cls-48 {
        fill: url(#linear-gradient-7);
      }

      .cls-49 {
        fill: url(#linear-gradient-24);
      }

      .cls-50 {
        fill: url(#linear-gradient-9);
      }

      .cls-51 {
        fill: url(#linear-gradient-22);
      }

      .cls-52 {
        fill: url(#linear-gradient-42);
      }

      .cls-53 {
        fill: url(#linear-gradient-3);
      }

      .cls-54 {
        fill: url(#linear-gradient);
      }

      .cls-55 {
        fill: url(#linear-gradient-27);
      }

      .cls-56 {
        fill: url(#linear-gradient-33);
      }

      .cls-57 {
        fill: url(#linear-gradient-38);
      }

      .cls-58 {
        fill: url(#linear-gradient-29);
      }

      .cls-59 {
        fill: url(#linear-gradient-30);
      }

      .cls-60 {
        fill: #bdd0fb;
      }

      .cls-61 {
        fill: url(#linear-gradient-23);
      }

      .cls-62 {
        fill: url(#linear-gradient-19);
      }

      .cls-63 {
        fill: url(#linear-gradient-4);
      }

      .cls-64 {
        fill: url(#linear-gradient-8);
      }

      .cls-65 {
        fill: url(#linear-gradient-44);
      }

      .cls-66 {
        fill: url(#linear-gradient-57);
      }

      .cls-5 {
        opacity: .65;
      }

      .cls-67 {
        fill: url(#linear-gradient-47);
      }

      .cls-68 {
        fill: url(#linear-gradient-46);
      }

      .cls-69 {
        fill: url(#linear-gradient-12);
      }

      .cls-70 {
        fill: url(#linear-gradient-13);
      }

      .cls-71 {
        fill: url(#linear-gradient-26);
      }

      .cls-6 {
        opacity: .51;
      }
    </style>
    <linearGradient id="linear-gradient" x1="3178.8" y1="3641.89" x2="672.35" y2="529.03" gradientUnits="userSpaceOnUse">
      <stop offset="0" stop-color="#dae3fe"/>
      <stop offset="1" stop-color="#e9effd"/>
    </linearGradient>
    <linearGradient id="linear-gradient-2" x1="1633.09" y1="1983.79" x2="2123.19" y2="935.52" gradientUnits="userSpaceOnUse">
      <stop offset="0" stop-color="#09005d"/>
      <stop offset="1" stop-color="#1a0f91"/>
    </linearGradient>
    <linearGradient id="linear-gradient-3" x1="1420.56" y1="91.09" x2="1420.56" y2="1200.62" xlink:href="#linear-gradient-2"/>
    <linearGradient id="linear-gradient-4" x1="1729.64" y1="3803.69" x2="1559.47" y2="2973.25" xlink:href="#linear-gradient-2"/>
    <linearGradient id="linear-gradient-5" x1="496.68" y1="-536.75" x2="-219.06" y2="1246.94" gradientTransform="translate(1986.82 367.73) rotate(-16.79)" gradientUnits="userSpaceOnUse">
      <stop offset="0" stop-color="#4042e2"/>
      <stop offset="1" stop-color="#4f52ff"/>
    </linearGradient>
    <linearGradient id="linear-gradient-6" x1="91.9" y1="-699.17" x2="-623.82" y2="1084.47" xlink:href="#linear-gradient-5"/>
    <linearGradient id="linear-gradient-7" x1="-22.32" y1="-745.02" x2="-738.05" y2="1038.64" xlink:href="#linear-gradient-5"/>
    <linearGradient id="linear-gradient-8" x1="30.03" y1="-724" x2="-685.7" y2="1059.64" xlink:href="#linear-gradient-5"/>
    <linearGradient id="linear-gradient-9" x1="381.57" y1="-582.93" x2="-334.15" y2="1200.69" xlink:href="#linear-gradient-5"/>
    <linearGradient id="linear-gradient-10" x1="-8.67" y1="-739.54" x2="-724.4" y2="1044.11" xlink:href="#linear-gradient-5"/>
    <linearGradient id="linear-gradient-11" x1="-9.51" y1="-739.88" x2="-725.24" y2="1043.78" xlink:href="#linear-gradient-5"/>
    <linearGradient id="linear-gradient-12" x1="173.92" y1="-666.26" x2="-541.8" y2="1117.38" xlink:href="#linear-gradient-5"/>
    <linearGradient id="linear-gradient-13" x1="272.15" y1="-626.84" x2="-443.57" y2="1156.79" xlink:href="#linear-gradient-5"/>
    <linearGradient id="linear-gradient-14" x1="28.2" y1="-724.75" x2="-687.53" y2="1058.92" xlink:href="#linear-gradient-5"/>
    <linearGradient id="linear-gradient-15" x1="600.97" y1="-494.9" x2="-114.77" y2="1288.78" xlink:href="#linear-gradient-5"/>
    <linearGradient id="linear-gradient-16" x1="469.15" y1="-547.84" x2="-246.6" y2="1235.87" xlink:href="#linear-gradient-5"/>
    <linearGradient id="linear-gradient-17" x1="973.89" y1="-322.95" x2="258.15" y2="1460.71" xlink:href="#linear-gradient-5"/>
    <linearGradient id="linear-gradient-18" x1="1047.93" y1="-293.24" x2="332.2" y2="1490.42" xlink:href="#linear-gradient-5"/>
    <linearGradient id="linear-gradient-19" x1="1051.62" y1="-291.76" x2="335.89" y2="1491.9" xlink:href="#linear-gradient-5"/>
    <linearGradient id="linear-gradient-20" x1="984.78" y1="-318.57" x2="269.05" y2="1465.07" xlink:href="#linear-gradient-5"/>
    <linearGradient id="linear-gradient-21" x1="832.2" y1="-379.79" x2="116.48" y2="1403.85" xlink:href="#linear-gradient-5"/>
    <linearGradient id="linear-gradient-22" x1="917.74" y1="-345.47" x2="202.02" y2="1438.17" xlink:href="#linear-gradient-5"/>
    <linearGradient id="linear-gradient-23" x1="1030.16" y1="-300.36" x2="314.42" y2="1483.29" xlink:href="#linear-gradient-5"/>
    <linearGradient id="linear-gradient-24" x1="622.62" y1="-463.87" x2="-93.1" y2="1319.74" xlink:href="#linear-gradient-5"/>
    <linearGradient id="linear-gradient-25" x1="732.17" y1="-419.92" x2="16.44" y2="1363.7" xlink:href="#linear-gradient-5"/>
    <linearGradient id="linear-gradient-26" x1="1019.4" y1="-304.69" x2="303.66" y2="1478.98" xlink:href="#linear-gradient-5"/>
    <linearGradient id="linear-gradient-27" x1="367" y1="-588.8" x2="-348.74" y2="1194.88" xlink:href="#linear-gradient-5"/>
    <linearGradient id="linear-gradient-28" x1="1223.61" y1="3303.65" x2="1335.93" y2="2347.23" gradientTransform="translate(875.97 228.08) rotate(11.18)" xlink:href="#linear-gradient-2"/>
    <linearGradient id="linear-gradient-29" x1="2204.72" y1="717.58" x2="2383.05" y2="717.58" gradientTransform="matrix(1,0,0,1,0,0)" xlink:href="#linear-gradient-5"/>
    <linearGradient id="linear-gradient-30" x1="2276.61" y1="680.88" x2="2529.23" y2="680.88" gradientTransform="matrix(1,0,0,1,0,0)" xlink:href="#linear-gradient-5"/>
    <linearGradient id="linear-gradient-31" x1="880.88" y1="3263.41" x2="993.2" y2="2306.98" gradientTransform="translate(875.97 228.08) rotate(11.18)" xlink:href="#linear-gradient-2"/>
    <linearGradient id="linear-gradient-32" x1="2105.38" y1="582.56" x2="2302.01" y2="582.56" gradientTransform="matrix(1,0,0,1,0,0)" xlink:href="#linear-gradient-5"/>
    <linearGradient id="linear-gradient-33" x1="1962.91" y1="563.38" x2="2345.48" y2="563.38" gradientTransform="matrix(1,0,0,1,0,0)" xlink:href="#linear-gradient-5"/>
    <linearGradient id="linear-gradient-34" x1="621.62" y1="-288.75" x2="365.92" y2="706.11" gradientTransform="translate(410.97 -198.8) rotate(45)" gradientUnits="userSpaceOnUse">
      <stop offset="0" stop-color="#fe7062"/>
      <stop offset="1" stop-color="#ff928e"/>
    </linearGradient>
    <linearGradient id="linear-gradient-35" x1="1349.12" y1="-762.58" x2="950.19" y2="-280.28" gradientUnits="userSpaceOnUse">
      <stop offset="0" stop-color="#e1473d"/>
      <stop offset="1" stop-color="#e9605a"/>
    </linearGradient>
    <linearGradient id="linear-gradient-36" x1="1439.61" y1="-687.72" x2="1040.68" y2="-205.43" xlink:href="#linear-gradient-35"/>
    <linearGradient id="linear-gradient-37" x1="1289.49" y1="291.63" x2="1536.93" y2="1691.86" xlink:href="#linear-gradient-2"/>
    <linearGradient id="linear-gradient-38" x1="1941.55" y1="476.1" x2="661.13" y2="3441.62" gradientTransform="matrix(1,0,0,1,0,0)" xlink:href="#linear-gradient-34"/>
    <linearGradient id="linear-gradient-39" x1="1145.47" y1="1373.81" x2="1799.37" y2="-216.2" xlink:href="#linear-gradient-2"/>
    <linearGradient id="linear-gradient-40" x1="1314.01" y1="1443.12" x2="1967.92" y2="-146.89" xlink:href="#linear-gradient-2"/>
    <linearGradient id="linear-gradient-41" x1="1520.16" y1="1527.9" x2="2174.06" y2="-62.11" xlink:href="#linear-gradient-2"/>
    <linearGradient id="linear-gradient-42" x1="1175.11" y1="1386" x2="1829.01" y2="-204.01" xlink:href="#linear-gradient-2"/>
    <linearGradient id="linear-gradient-43" x1="1291.54" y1="1433.88" x2="1945.44" y2="-156.13" xlink:href="#linear-gradient-2"/>
    <linearGradient id="linear-gradient-44" x1="1409.58" y1="1482.42" x2="2063.48" y2="-107.59" xlink:href="#linear-gradient-2"/>
    <linearGradient id="linear-gradient-45" x1="1529.28" y1="1531.65" x2="2183.17" y2="-58.33" xlink:href="#linear-gradient-2"/>
    <linearGradient id="linear-gradient-46" x1="1661.79" y1="1586.15" x2="2315.69" y2="-3.87" xlink:href="#linear-gradient-2"/>
    <linearGradient id="linear-gradient-47" x1="3234.52" y1="2633.85" x2="2534.94" y2="3394.8" gradientTransform="translate(-2400.04)" xlink:href="#linear-gradient-2"/>
    <linearGradient id="linear-gradient-48" x1="3007.45" y1="2690.37" x2="3069.59" y2="2690.37" gradientTransform="translate(-2400.04)" gradientUnits="userSpaceOnUse">
      <stop offset="0" stop-color="#febbba"/>
      <stop offset="1" stop-color="#ff928e"/>
    </linearGradient>
    <linearGradient id="linear-gradient-49" x1="-672.42" y1="6475.8" x2="-2.59" y2="5690.73" gradientTransform="translate(-2400.04)" gradientUnits="userSpaceOnUse">
      <stop offset="0" stop-color="#020039"/>
      <stop offset="1" stop-color="#090056"/>
    </linearGradient>
    <linearGradient id="linear-gradient-50" x1="3077.58" y1="2489.57" x2="2378" y2="3250.52" gradientTransform="translate(-2400.04)" xlink:href="#linear-gradient-2"/>
    <linearGradient id="linear-gradient-51" x1="2783.5" y1="2687.18" x2="2837.15" y2="2687.18" xlink:href="#linear-gradient-48"/>
    <linearGradient id="linear-gradient-52" x1="-766.33" y1="6395.67" x2="-96.5" y2="5610.61" xlink:href="#linear-gradient-49"/>
    <linearGradient id="linear-gradient-53" x1="830.09" y1="1037.31" x2="588.44" y2="1718" gradientUnits="userSpaceOnUse">
      <stop offset="0" stop-color="#4f52ff"/>
      <stop offset="1" stop-color="#4042e2"/>
    </linearGradient>
    <linearGradient id="linear-gradient-54" x1="-9734.41" y1="2561.44" x2="-10431.33" y2="3453.08" gradientTransform="translate(1222.97 -9215.84) rotate(-71.74)" xlink:href="#linear-gradient-48"/>
    <linearGradient id="linear-gradient-55" x1="-9639.54" y1="2635.59" x2="-10336.45" y2="3527.23" gradientTransform="translate(1222.97 -9215.84) rotate(-71.74)" xlink:href="#linear-gradient-48"/>
    <linearGradient id="linear-gradient-56" x1="623.32" y1="963.9" x2="381.68" y2="1644.6" xlink:href="#linear-gradient-53"/>
    <linearGradient id="linear-gradient-57" x1="341.6" y1="863.89" x2="99.95" y2="1544.59" xlink:href="#linear-gradient-53"/>
    <linearGradient id="linear-gradient-58" x1="-5663.28" y1="1823.28" x2="-5783.14" y2="2341.27" gradientTransform="translate(6519.48 666.82) rotate(15.02)" xlink:href="#linear-gradient-48"/>
    <linearGradient id="linear-gradient-59" x1="-1368.47" y1="1455.14" x2="-1806.47" y2="1668" gradientTransform="translate(-1531.22 -33.78) rotate(160.92) scale(1 -1)" xlink:href="#linear-gradient-48"/>
    <linearGradient id="linear-gradient-60" x1="-5577.25" y1="-4704.84" x2="-5335.89" y2="-4704.84" gradientTransform="translate(7702.35 2070.92) rotate(-31.72)" xlink:href="#linear-gradient-2"/>
    <linearGradient id="linear-gradient-61" x1="-1344.83" y1="1503.79" x2="-1782.83" y2="1716.65" gradientTransform="translate(-1531.22 -33.78) rotate(160.92) scale(1 -1)" xlink:href="#linear-gradient-48"/>
    <linearGradient id="linear-gradient-62" x1="-1547.54" y1="1863.85" x2="-1160.2" y2="2132.43" gradientTransform="translate(-1012.35 -1037.7) rotate(-179.4) scale(1 -1)" xlink:href="#linear-gradient-48"/>
    <linearGradient id="linear-gradient-63" x1="-1539.66" y1="1856.08" x2="-1136.71" y2="2135.48" gradientTransform="translate(-1012.35 -1037.7) rotate(-179.4) scale(1 -1)" xlink:href="#linear-gradient-48"/>
    <linearGradient id="linear-gradient-64" x1="246.72" y1="830.21" x2="5.07" y2="1510.9" xlink:href="#linear-gradient-53"/>
  </defs>
  <g id="Illustration">
    <g>
      <path class="cls-54" d="m2497,2408.92c-58,60.32-112.87,99.21-156.23,129.95-509.64,361.25-1112.69,255.94-1240.85,230.23-189.26-37.97-555.09-111.38-819.58-418.64C-119.81,1885.58-57.5,1153.19,252.88,669.73,309.66,581.3,609.55,90.47,1219.09,11.76c368.89-47.64,798.89,48.44,1110.29,306.17,653.65,541,607.12,1633.9,167.62,2090.99Z"/>
      <g>
        <g>
          <path class="cls-60" d="m1164.35,2582.54c-17.83-321.26-136.97-614.32-559.95-822.81,0,0-65.65,788.07,559.95,822.81Z"/>
          <path class="cls-6" d="m1048.2,2443.07c-.86,0-1.71-.32-2.38-.97-239.24-233.5-388.72-576.05-390.2-579.49-.74-1.72.05-3.73,1.77-4.47,1.72-.74,3.73.05,4.47,1.77,1.48,3.42,150.44,344.78,388.7,577.31,1.35,1.31,1.37,3.47.06,4.81-.67.68-1.55,1.03-2.44,1.03Z"/>
        </g>
        <g>
          <path class="cls-60" d="m1901.74,2562.48c288.89,26.66,566.04-40.78,808.03-390.4,0,0-694.17-162.95-808.03,390.4Z"/>
          <path class="cls-6" d="m2065.65,2468.1c-.78,0-1.56-.27-2.2-.81-1.44-1.22-1.61-3.36-.4-4.8,86.36-101.8,227.76-166.48,331.17-202.82,111.89-39.32,204.68-54.85,205.61-55,1.87-.33,3.61.95,3.91,2.8.31,1.85-.95,3.61-2.8,3.91-3.68.61-369.2,62.78-532.7,255.51-.67.79-1.63,1.2-2.6,1.2Z"/>
        </g>
        <polygon class="cls-1" points="1197.85 1953.65 1137.11 2498.41 1841.81 2498.41 1750.02 1953.65 1197.85 1953.65"/>
        <g>
          <path class="cls-53" d="m14.07,611.49v1247.63c0,102.63,81.79,186.57,184.39,189.21,455.7,11.75,2049.5,40.24,2483.29,33.85,74.56-1.1,134.96-60.76,137.11-135.3,8.36-289.84,21.95-986.81-28.32-1310.39-10.59-68.14-68.1-119.1-137.03-121.3-381.82-12.21-2071.35-51-2504.94-41.26-74.78,1.68-134.49,62.76-134.49,137.56Z"/>
          <path class="cls-30" d="m92.35,605.42v1185.34c0,59.92,48.1,108.75,108.02,109.65l2418.97,29.89c59.4.89,108.1-46.9,108.32-106.31l4.05-1174.75c.16-42.48-33.68-77.29-76.15-78.32l-2476.58-50.03c-47.5-1.16-86.63,37.03-86.63,84.54Z"/>
          <path class="cls-5" d="m2745.87,1978.91h-.06l-2653.52-45.21c-1.88-.03-3.38-1.58-3.35-3.46.04-1.88,1.74-3.38,3.46-3.35l2653.52,45.21c1.88.03,3.38,1.58,3.35,3.46-.03,1.86-1.55,3.35-3.4,3.35Z"/>
          <path class="cls-5" d="m1445.29,2034.13c-17.1,0-31.01-13.91-31.01-31.01s13.91-31.01,31.01-31.01,31.01,13.91,31.01,31.01-13.91,31.01-31.01,31.01Zm0-55.22c-13.35,0-24.21,10.86-24.21,24.21s10.86,24.21,24.21,24.21,24.21-10.86,24.21-24.21-10.86-24.21-24.21-24.21Z"/>
        </g>
        <g>
          <path class="cls-36" d="m1859.24,2577.6c309.88-153.83,548.93-395.81,575.6-902.15,0,0-806.53,269.27-575.6,902.15Z"/>
          <path class="cls-6" d="m1909.36,2463.3c-.37,0-.75-.06-1.13-.19-1.77-.62-2.71-2.56-2.08-4.34,73.97-210.87,183.9-373.45,263.09-472.71,85.83-107.58,155.15-166.12,155.85-166.69,1.45-1.2,3.59-1.01,4.8.42,1.21,1.44,1.02,3.59-.42,4.8-2.74,2.3-275.97,234.73-416.89,636.44-.49,1.4-1.8,2.28-3.21,2.28Z"/>
        </g>
        <g>
          <path class="cls-63" d="m1993.61,2609.86H962.22c-28.02,0-49.06-19.95-43.64-41.37l13.23-52.34c3.98-15.74,21.3-27.3,41.86-27.94l994.29-31.03c21.49-.67,40.51,10.74,45.2,27.09l23.86,83.37c6.2,21.66-14.94,42.22-43.42,42.22Z"/>
          <path class="cls-3" d="m1517.44,2502.43c-1.86,0-3.38-1.49-3.4-3.35-.03-1.88,1.48-3.43,3.35-3.45l42.61-.62h.05c1.86,0,3.38,1.49,3.4,3.35.03,1.88-1.48,3.43-3.35,3.45l-42.61.62h-.05Z"/>
          <path class="cls-3" d="m956.76,2581.05c-.18,0-.36-.01-.54-.04-1.86-.3-3.12-2.04-2.83-3.9l6.08-38.07c3.27-20.48,20.69-35.56,41.42-35.87l451.91-6.61h.05c1.86,0,3.38,1.49,3.4,3.35.03,1.88-1.48,3.43-3.35,3.45l-451.91,6.61c-17.42.26-32.05,12.93-34.8,30.13l-6.08,38.07c-.27,1.68-1.71,2.87-3.36,2.87Z"/>
        </g>
      </g>
      <g>
        <g>
          <path class="cls-42" d="m2249.34,100.27c15.42.73,30.98,2.14,46.25,4.19,2.09.28,4.14.1,6.04-.48,5.22-1.57,9.3-6.07,10.07-11.82,1.06-7.85-4.45-15.07-12.3-16.12-16.08-2.16-32.47-3.64-48.71-4.41-7.91-.37-14.63,5.73-15,13.64-.38,7.91,5.73,14.62,13.64,15Z"/>
          <path class="cls-19" d="m1847.68,230.32c-5.48-5.72-14.55-5.91-20.27-.43-11.72,11.23-23.1,23.11-33.82,35.29-5.23,5.95-4.65,15,1.3,20.23,3.86,3.4,9.04,4.34,13.62,2.96,2.48-.75,4.78-2.17,6.61-4.25,10.18-11.58,20.99-22.86,32.13-33.53,5.72-5.48,5.91-14.56.43-20.27Z"/>
          <path class="cls-48" d="m1671.86,554.33c-7.84-1.06-15.07,4.43-16.14,12.27-2.19,16.09-3.7,32.47-4.5,48.68-.39,7.91,5.71,14.63,13.61,15.03,1.69.08,3.32-.13,4.85-.59,5.64-1.7,9.87-6.8,10.18-13.03.76-15.4,2.2-30.95,4.27-46.23,1.07-7.84-4.43-15.07-12.27-16.14Z"/>
          <path class="cls-64" d="m1765.26,324.2c-6.61-4.36-15.51-2.54-19.86,4.08-8.95,13.57-17.42,27.67-25.16,41.9-3.79,6.95-1.22,15.66,5.74,19.45,3.5,1.91,7.45,2.2,10.99,1.14,3.48-1.05,6.57-3.42,8.45-6.87,7.36-13.52,15.41-26.92,23.92-39.82,4.36-6.61,2.53-15.5-4.08-19.86Z"/>
          <path class="cls-50" d="m2127.9,108.21c15.2-2.72,30.69-4.82,46.04-6.24.98-.09,1.92-.28,2.83-.56,6.39-1.93,10.76-8.14,10.12-15.04-.73-7.88-7.71-13.68-15.6-12.96-16.15,1.5-32.45,3.71-48.44,6.57-7.81,1.36-12.98,8.85-11.59,16.64,1.4,7.79,8.84,12.98,16.64,11.59Z"/>
          <path class="cls-29" d="m1705.65,434.01c-7.41-2.78-15.68.96-18.47,8.36-5.72,15.19-10.86,30.82-15.27,46.45-2.15,7.62,2.29,15.54,9.91,17.69,2.73.77,5.49.7,8.02-.07,4.53-1.37,8.29-4.95,9.67-9.84,4.18-14.86,9.06-29.7,14.5-44.13,2.79-7.41-.95-15.68-8.36-18.47Z"/>
          <path class="cls-25" d="m1665.85,679.11c-7.91.74-13.7,7.69-12.99,15.58,1.46,16.12,3.64,32.42,6.47,48.43,1.38,7.8,8.82,13,16.62,11.62.56-.1,1.12-.23,1.66-.39,6.86-2.07,11.24-8.99,9.96-16.22-2.7-15.22-4.77-30.7-6.15-46.02-.71-7.88-7.68-13.7-15.57-12.99Z"/>
          <path class="cls-69" d="m1900.9,204.46c1.48-.45,2.92-1.15,4.25-2.1,12.5-9.02,25.54-17.6,38.77-25.51,6.8-4.07,9.01-12.87,4.95-19.67-4.07-6.8-12.85-8.97-19.67-4.94-13.93,8.33-27.66,17.37-40.82,26.87-6.42,4.63-7.87,13.59-3.24,20.02,3.67,5.09,10.07,7.06,15.77,5.34Z"/>
          <path class="cls-70" d="m2009.72,143.28c.49-.15.97-.32,1.45-.52,14.19-5.99,28.83-11.44,43.51-16.21,7.53-2.44,11.66-10.53,9.21-18.06-2.41-7.43-10.32-11.55-17.77-9.3-.1.03-.2.06-.29.09-15.46,5.01-30.87,10.76-45.8,17.06-7.3,3.08-10.71,11.49-7.64,18.79,2.87,6.81,10.41,10.24,17.33,8.16Z"/>
          <path class="cls-16" d="m1705.7,811.15c-2.4-7.45-10.38-11.76-17.84-9.52-.09.03-.18.05-.27.08-7.58,2.29-11.62,10.7-9.18,18.24,5,15.49,10.84,31.35,17.11,46.29,2.86,6.83,10.37,10.15,17.31,8.06.48-.14.88-.54,1.35-.74,7.3-3.06,10.75-11.43,7.69-18.73-5.95-14.19-11.42-28.97-16.16-43.68Z"/>
          <path class="cls-9" d="m2409.3,117.07c2.45-7.52-1.67-15.62-9.2-18.07-7.4-2.41-14.96-4.7-22.49-6.82-7.62-2.16-15.54,2.3-17.68,9.92-2.14,7.62,2.3,15.54,9.92,17.68,7.16,2.02,14.35,4.19,21.38,6.48,2.89.94,5.86.91,8.56.1,4.34-1.31,8-4.65,9.51-9.3Z"/>
        </g>
        <path class="cls-34" d="m2170.11,1185.26c-15.11-1.48-30.33-3.63-45.24-6.38-7.8-1.44-15.26,3.71-16.7,11.5-1.44,7.79,3.71,15.26,11.5,16.7,15.71,2.9,31.74,5.16,47.64,6.72,1.92.19,3.79,0,5.54-.53,5.4-1.63,9.55-6.38,10.13-12.33.77-7.88-4.99-14.9-12.87-15.67Z"/>
        <g>
          <path class="cls-7" d="m2761.65,430.89c3.12,6.42,10.4,9.47,17.02,7.47.72-.22,1.44-.49,2.14-.83,7.12-3.46,10.1-12.03,6.64-19.16-3.4-7-7-14.05-10.71-20.95-3.75-6.97-12.41-9.61-19.42-5.84-6.97,3.75-9.59,12.44-5.84,19.42,3.52,6.55,6.94,13.24,10.17,19.89Z"/>
          <path class="cls-11" d="m2826.8,601.32c-7.86.77-13.65,7.77-12.88,15.66,1.47,15.12,2.31,30.46,2.5,45.61.1,7.91,6.6,14.25,14.51,14.15,1.38-.02,2.71-.23,3.97-.6,5.96-1.8,10.27-7.37,10.19-13.91-.2-15.95-1.08-32.1-2.63-48.02-.77-7.88-7.78-13.65-15.66-12.88Z"/>
          <path class="cls-62" d="m2828.26,724.28c-7.84-.99-15.02,4.58-16.01,12.44-1.89,15.04-4.45,30.2-7.62,45.06-1.65,7.74,3.29,15.36,11.04,17,2.45.52,4.88.38,7.11-.29,4.84-1.46,8.77-5.45,9.9-10.75,3.33-15.64,6.03-31.6,8.02-47.45.99-7.86-4.58-15.03-12.44-16.01Z"/>
          <path class="cls-18" d="m2731.47,960.67c-8.13,12.8-16.92,25.42-26.1,37.51-4.79,6.31-3.56,15.3,2.75,20.09,3.8,2.88,8.58,3.58,12.82,2.3,2.8-.84,5.36-2.55,7.26-5.05,9.67-12.73,18.91-26.01,27.47-39.48,4.24-6.69,2.27-15.54-4.41-19.79-6.69-4.25-15.55-2.28-19.79,4.41Z"/>
          <path class="cls-40" d="m2563.14,1128.8c-12.84,8.12-26.17,15.77-39.61,22.75-7.03,3.65-9.77,12.31-6.12,19.34,3.23,6.22,10.38,9.07,16.85,7.12.84-.25,1.67-.59,2.48-1.01,14.15-7.35,28.19-15.41,41.71-23.96,6.69-4.23,8.69-13.09,4.46-19.78-4.23-6.69-13.08-8.68-19.78-4.46Z"/>
          <path class="cls-51" d="m2656.57,1054.07c-10.75,10.74-22.07,21.14-33.64,30.9-6.05,5.11-6.82,14.15-1.71,20.21,3.8,4.51,9.79,6.08,15.1,4.48,1.82-.55,3.56-1.47,5.1-2.77,12.18-10.28,24.1-21.23,35.41-32.54,5.6-5.6,5.6-14.67.01-20.27-5.6-5.61-14.68-5.6-20.28,0Z"/>
          <path class="cls-61" d="m2802.6,844.54c-7.46-2.69-15.67,1.17-18.36,8.61-5.15,14.26-10.97,28.49-17.31,42.3-3.3,7.2-.14,15.71,7.05,19.01,3.31,1.52,6.89,1.67,10.11.7,3.8-1.15,7.11-3.86,8.9-7.75,6.67-14.54,12.8-29.52,18.22-44.52,2.69-7.45-1.17-15.66-8.61-18.36Z"/>
          <path class="cls-49" d="m2338.93,1208.81c-15.09,1.87-30.41,3.13-45.56,3.73-7.9.29-14.07,6.98-13.76,14.9.31,7.91,6.98,14.07,14.89,13.75,15.95-.63,32.08-1.96,47.95-3.93.82-.1,1.62-.27,2.39-.5,6.57-1.98,10.95-8.46,10.07-15.49-.98-7.85-8.14-13.43-15.99-12.46Z"/>
          <path class="cls-41" d="m2455.49,1181.16c-14.2,5.06-28.84,9.58-43.67,13.52-7.62,1.99-12.21,9.88-10.18,17.54,2.03,7.65,9.88,12.21,17.54,10.18,6.43-1.71,12.8-3.51,19.11-5.41,9.01-2.72,18.04-5.68,26.82-8.81,7.46-2.65,11.36-10.85,8.7-18.32-2.66-7.46-10.85-11.34-18.31-8.7Z"/>
          <path class="cls-71" d="m2816.67,490.85c-2.45-7.53-10.5-11.82-18.07-9.19-7.53,2.45-11.65,10.54-9.2,18.07,1.24,3.82,2.45,7.67,3.62,11.53,3.22,10.68,6.16,21.61,8.73,32.48,1.82,7.7,9.54,12.48,17.25,10.65.29-.07.58-.14.86-.23,7.2-2.17,11.55-9.6,9.8-17.02-2.7-11.44-5.79-22.94-9.18-34.17-1.23-4.07-2.5-8.11-3.8-12.13Z"/>
        </g>
        <path class="cls-55" d="m2052.63,1160.34c-6.99-2.32-14.08-4.83-21.05-7.46-7.41-2.8-15.68.94-18.48,8.35-2.8,7.41.94,15.68,8.35,18.48,7.34,2.77,14.79,5.41,22.16,7.85,2.91.96,5.9.94,8.63.12,4.32-1.3,7.95-4.62,9.48-9.22,2.49-7.52-1.59-15.63-9.11-18.11Z"/>
        <g>
          <path class="cls-15" d="m2693.01,524.73l-80.71-11.38c-15.44-34.38-36.06-65.48-60.63-92.66l-104.17,20.02-79.61,86.32,70.28,152.17-177.87-5.94-103.97,77.41,14.11,136.61-109.33-21.2-37.22,36.91-21,78.54c-.74,2.76.35,5.69,2.73,7.29l81.1,54.7c2.37,1.6,5.5,1.52,7.78-.2l65.16-49.05c35.6,13.54,73.62,21.49,112.78,22.99l40.78,70.57c1.43,2.48,4.28,3.77,7.08,3.22l96.03-18.67c2.81-.55,4.96-2.81,5.36-5.64l11.38-80.71c35.76-16.06,68.02-37.68,95.96-63.56l78.79,21.07c2.76.74,5.69-.36,7.28-2.73l54.7-81.1c1.6-2.37,1.52-5.5-.2-7.78l-49.05-65.15c13.54-35.6,21.49-73.62,22.99-112.78l70.57-40.79c2.48-1.43,3.77-4.27,3.22-7.08l-18.67-96.03c-.54-2.81-2.81-4.96-5.64-5.36Z"/>
          <path class="cls-58" d="m2318.42,728.3c-34.51,16.23-75.14,3.86-95.3-27.32l-18.41,13.73c23.92,35.77,68.75,51.95,109.98,39.52,4.55-1.37,9.06-3.09,13.48-5.17,29.85-14.03,49.35-41.25,54.87-71.46l-23.28-.82c-5,21.84-19.55,41.28-41.35,51.52Z"/>
          <path class="cls-59" d="m2518.75,587.96c-15.38-50.96-46.91-94.98-90.62-126.23l-7.84,8.5c42.24,29.82,72.69,72.07,87.48,121.07,2.27,7.52,4.17,15.2,5.69,23.01,8.66,44.56,3.79,88.66-11.74,128.06-27.92,70.82-90.28,126.42-170.4,141.98-16.13,3.14-32.57,4.56-48.86,4.23-3.16-.06-5.79,2.45-5.85,5.61-.01.62.07,1.22.24,1.78.7,2.31,2.83,4.02,5.37,4.07.97.02,1.94-.5,2.91-.5.5,0,1-.53,1.5-.53h.53c12.88,0,25.81-.51,38.6-2.57,2.59-.42,5.18-.61,7.76-1.11,8.19-1.59,16.24-3.45,24.12-5.83,53.13-16.02,98.75-49.48,130.19-96.11,36.11-53.54,49.22-117.91,36.89-181.31-1.6-8.2-3.59-16.23-5.97-24.12Z"/>
        </g>
        <g>
          <path class="cls-35" d="m2087.13,825.19l-13.45-130.16,103.97-77.41,173.3,5.79c2.1.07,3.54-2.1,2.66-4l-68.36-148.02,79.61-86.32,104.17-20.02c-.99-1.09-1.93-2.22-2.93-3.3l21.07-78.79c.74-2.76-.36-5.69-2.72-7.28l-81.1-54.7c-2.37-1.6-5.49-1.52-7.78.2l-65.16,49.05c-35.6-13.54-73.62-21.49-112.78-22.99l-40.79-70.57c-1.43-2.48-4.27-3.77-7.08-3.22l-96.03,18.67c-2.81.55-4.96,2.81-5.36,5.64l-11.38,80.71c-35.76,16.06-68.02,37.67-95.96,63.56l-78.79-21.07c-2.76-.74-5.69.36-7.29,2.73l-54.7,81.1c-1.6,2.37-1.52,5.49.2,7.78l49.05,65.16c-13.54,35.6-21.49,73.62-22.98,112.78l-70.57,40.79c-2.47,1.43-3.77,4.27-3.22,7.08l18.67,96.03c.55,2.81,2.81,4.96,5.64,5.36l80.71,11.38c16.06,35.76,37.68,68.02,63.56,95.96l-.07.25,37.22-36.91,102.97,19.97c3.17.61,6.03-2,5.7-5.21Z"/>
          <path class="cls-24" d="m2140.47,645.35c-1.82-2.82-3.54-5.73-5-8.86-17.68-37.62-1.45-82.62,36.17-100.3,3.41-1.6,6.9-2.93,10.44-4,15.39-4.64,31.8-4.23,47.2,1.32,18.95,6.83,34.1,20.63,42.66,38.86,7.43,15.82,8.8,32.93,5.18,48.78l23.28.82c3.56-19.45,1.34-40.14-7.7-59.36-11.17-23.77-30.93-41.77-55.64-50.68-24.7-8.91-51.4-7.67-75.18,3.51-49.07,23.06-70.24,81.74-47.18,130.82,2.14,4.54,4.65,8.78,7.36,12.83l18.41-13.73Z"/>
          <path class="cls-56" d="m2339.92,402.17c-53.54-36.12-117.94-49.22-181.34-36.9-130.83,25.44-216.65,152.61-191.21,283.49,1.57,8.07,3.54,16.02,5.9,23.84,10.22,33.88,27.76,65.15,51.43,91.49,2.12,2.37,5.74,2.55,8.1.43,1.71-1.53,2.28-3.86,1.66-5.92-.23-.78-.64-1.53-1.22-2.18-22.55-25.1-39.25-54.88-48.98-87.15-2.25-7.45-4.13-15.03-5.62-22.72-24.23-124.66,57.42-245.78,182.14-270.03,60.39-11.74,121.74.74,172.74,35.14,1.4.94,2.75,1.94,4.13,2.91l7.84-8.5c-1.84-1.32-3.67-2.65-5.56-3.92Z"/>
        </g>
      </g>
      <g>
        <g>
          <circle class="cls-3" cx="445.45" cy="396.68" r="282.01" transform="translate(-150.03 431.17) rotate(-45)"/>
          <circle class="cls-47" cx="445.45" cy="396.68" r="272.63" transform="translate(-150.03 431.17) rotate(-45)"/>
          <path class="cls-4" d="m670.26,286.31c.44,0,.88-.1,1.3-.31,1.42-.72,1.99-2.45,1.27-3.87-43.59-86.36-130.71-140-227.38-140-15.42,0-30.87,1.39-45.92,4.14-1.57.28-2.6,1.78-2.32,3.35.28,1.57,1.78,2.61,3.35,2.31,14.71-2.68,29.81-4.04,44.89-4.04,94.48,0,179.63,52.43,222.24,136.83.51,1,1.52,1.58,2.57,1.58Z"/>
          <circle class="cls-3" cx="439.51" cy="402.62" r="230.75" transform="translate(-155.97 428.71) rotate(-45)"/>
        </g>
        <g>
          <path class="cls-22" d="m453.8,447.49l-26.11-.62c-7.28-.17-13.3-6.4-13.68-13.72l-9.56-183.98c-.2-3.79,1.17-6.92,3.77-9.48,2.6-2.56,6.2-3.39,9.97-3.13l44.97,3.13c3.69.26,7.2,1.48,9.73,4.36,2.53,2.88,3.85,6.33,3.66,10.03l-9.3,180.62c-.37,7.22-6.27,12.95-13.45,12.78Z"/>
          <path class="cls-17" d="m413.5,492.43c6.52-6.23,15.69-9.24,27.49-9.05,12.16.19,21.38,3.4,27.69,9.61,6.3,6.19,9.43,15.23,9.43,27.14s-3.21,20.37-9.64,26.67c-6.45,6.32-15.6,9.48-27.48,9.48s-20.79-3.27-27.38-9.81c-6.61-6.57-9.92-15.55-9.92-26.93s3.28-20.85,9.81-27.1Z"/>
        </g>
      </g>
      <g>
        <g>
          <path class="cls-33" d="m1474.9,273.83l-727.98,1223.18c-15.98,26.85,4.91,59.71,38.14,59.98l1443.08,11.88c33.35.27,54.87-32.45,39.16-59.57L1552.2,274.24c-16.44-28.39-60.51-28.63-77.3-.41Z"/>
          <path class="cls-57" d="m1478.58,346.91l-661.15,1110.89c-14.52,24.39,4.46,54.23,34.64,54.48l1310.6,10.79c30.29.25,49.83-29.47,35.57-54.1L1548.78,347.28c-14.93-25.79-54.95-26-70.21-.37Z"/>
        </g>
        <g>
          <g>
            <path class="cls-28" d="m1364.93,1108.12l-32.3.42v57.68l-55.74.93v-57.88l-116.43,1.51v-41.38l119.58-181.54,52.59.06v174.94l32.3-.33v45.59Zm-88.04-44.7v-47.38c0-7.9.3-19.36.93-34.39.62-15.03,1.11-23.75,1.48-26.18h-1.48c-4.57,10.47-10.07,20.68-16.5,30.65l-49.9,77.95,65.47-.66Z"/>
            <path class="cls-13" d="m1577.96,1025.15c0,47.84-7.46,83.36-22.39,106.57-14.97,23.26-38.07,35.17-69.38,35.7-30.47.52-53.53-11.07-69.1-34.8-15.6-23.78-23.41-59.13-23.41-106.03s7.6-85,22.78-108.2c15.15-23.15,38.42-34.69,69.74-34.65,30.35.04,53.22,12.09,68.67,36.12,15.42,23.98,23.11,59.06,23.11,105.28Zm-128.47,1c0,33.88,2.81,58.13,8.42,72.73,5.61,14.59,15.03,21.79,28.27,21.6,12.97-.18,22.33-7.71,28.08-22.59,5.75-14.86,8.62-38.97,8.62-72.32s-2.9-57.94-8.71-72.65c-5.81-14.72-15.14-22.08-27.99-22.06-13.12.02-22.51,7.43-28.18,22.23-5.67,14.82-8.51,39.17-8.51,73.05Z"/>
            <path class="cls-39" d="m1799.47,1102.47l-30.53.4v56.07l-52.67.88v-56.27l-110,1.43v-40.21l112.97-176.44,49.7.05v170.07l30.53-.31v44.32Zm-83.2-43.48v-46.06c0-7.67.29-18.82.87-33.43.58-14.61,1.05-23.09,1.4-25.44h-1.4c-4.32,10.17-9.51,20.1-15.59,29.8l-47.14,75.76,61.85-.62Z"/>
          </g>
          <g>
            <path class="cls-52" d="m1239.17,1410.2l-85.99,2.76v-153.62l85.99-1.92v26.54l-54.22,1.3v33.66l50.46-1.32v26.55l-50.46,1.41v39.54l54.22-1.65v26.75Z"/>
            <path class="cls-8" d="m1306.55,1349.67v58.38l-31.28,1v-152.44l42.95-.96c19.95-.45,34.68,2.98,44.22,10.26,9.53,7.28,14.28,18.54,14.28,33.8,0,8.91-2.36,16.89-7.09,23.96-4.73,7.07-11.43,12.7-20.11,16.88,22,33.45,36.3,55,42.95,64.73l-34.34,1.1-34.99-57.19-16.6.47Zm0-26.22l10.06-.27c9.85-.26,17.11-2.15,21.79-5.67,4.68-3.52,7.02-8.9,7.02-16.17s-2.39-12.26-7.17-15.19c-4.78-2.93-12.19-4.28-22.25-4.04l-9.46.23v41.11Z"/>
            <path class="cls-65" d="m1446.59,1345.7v57.86l-30.73.98v-151.07l42.19-.94c19.6-.44,34.06,2.96,43.43,10.18,9.36,7.21,14.03,18.38,14.03,33.51,0,8.83-2.32,16.74-6.96,23.75-4.65,7.01-11.23,12.58-19.75,16.73,21.61,33.16,35.66,54.52,42.19,64.16l-33.73,1.08-34.37-56.69-16.3.46Zm0-25.99l9.88-.26c9.67-.26,16.81-2.13,21.41-5.61,4.6-3.48,6.89-8.82,6.89-16.03s-2.35-12.15-7.04-15.05c-4.7-2.91-11.98-4.24-21.85-4.01l-9.29.22v40.74Z"/>
            <path class="cls-45" d="m1682.35,1321.55c0,24.58-5.76,43.64-17.29,57.21-11.55,13.59-28.13,20.73-49.78,21.43-21.71.7-38.42-5.41-50.1-18.34-11.7-12.95-17.55-31.9-17.55-56.83s5.87-44.12,17.6-57.54c11.71-13.4,28.47-20.33,50.25-20.82,21.71-.48,38.28,5.73,49.73,18.62,11.43,12.87,17.14,31.63,17.14,56.27Zm-103.06,2.8c0,16.7,3.02,29.19,9.04,37.46,6.02,8.27,15,12.21,26.95,11.85,23.9-.73,35.82-17.81,35.82-51.26s-11.86-49.99-35.63-49.43c-11.94.29-20.97,4.74-27.05,13.37-6.09,8.64-9.14,21.31-9.14,38.01Z"/>
            <path class="cls-68" d="m1745.81,1337.22v56.74l-29.55.95v-148.16l40.58-.91c18.85-.42,32.77,2.92,41.78,10,9,7.08,13.5,18.03,13.5,32.87,0,8.66-2.23,16.42-6.7,23.29-4.47,6.87-10.8,12.34-19,16.4,20.79,32.53,34.31,53.5,40.59,62.96l-32.45,1.04-33.07-55.63-15.68.44Zm0-25.49l9.51-.25c9.31-.25,16.17-2.08,20.59-5.5,4.42-3.41,6.63-8.65,6.63-15.72s-2.26-11.92-6.77-14.77c-4.52-2.85-11.52-4.17-21.02-3.94l-8.94.22v39.95Z"/>
          </g>
        </g>
      </g>
      <g>
        <path class="cls-67" d="m613.34,2690.54s-7.24,41.02-10.8,81.62c-1.39,15.87,10.84,29.65,26.76,30.31,54.07,2.25,169.72,6.63,211.22,4.78,6.24-.28,10.32-6.67,8.01-12.47h0c-1.93-4.86-5.67-8.79-10.42-10.98l-191.04-87.8-33.73-5.45Z"/>
        <path class="cls-23" d="m607.41,2666.44l5.82,49.06s33.47,15.58,56.32-1.96l-13.86-54.67-48.28,7.58Z"/>
        <path class="cls-32" d="m611.78,1744.1c-2.51,12.81-13.5,639.33,53.47,920.1,1.09,4.58-1.23,9.3-5.59,11.08-10.27,4.2-30.41,10.27-54.54,11.08-7.47.25-14.17-4.61-16.28-11.78-19.14-65.14-110.88-391.52-122.84-703.3-13.37-348.38,0-11.86,0-11.86l7.84-215.35,137.94.03Z"/>
        <path class="cls-26" d="m393.59,2711.93s-11.53,20.71-22.7,75.73c-2.02,9.94,4.93,19.45,15.02,20.44,17.85,1.76,45.34,4.01,67.35,3.86,10.15-.07,18.07-8.91,16.85-18.98-2.44-20.08-10.04-53.03-33.51-78.71l-43.01-2.33Z"/>
        <path class="cls-2" d="m383.46,2648.83l13.6,74.19s13.45,10,40.05,2.75l-6.49-79.83-47.16,2.88Z"/>
        <path class="cls-14" d="m346.71,1763.32c-54.77,330.56,11.88,817,34.36,912.21,1.38,5.83,6.08,10.29,11.99,11.27,10.03,1.66,26.55,3.02,42.84-1.71,5.61-1.63,9.55-6.69,9.78-12.53,3.02-76.97-2.41-549.52,48.62-736.27,2.59-9.46,8.37-17.72,16.36-23.4l99.06-70.42,7.59-113.83-270.61,34.68Z"/>
        <g>
          <g>
            <g>
              <g>
                <path class="cls-20" d="m834.36,1292.12c-8.33,59.22-17.12,72.82-23.94,73.18-21.74,1.12-17.36-132.39-96.86-199.92-50.22-42.66-118.81-46.17-172.62-41.19,25.11,90.05,50.22,180.1,75.33,270.15,10.96,26.9,58.77,135.72,166.93,168.75,22.02,6.72,54.8,16.73,85.28,3.63,60.17-25.86,88.39-131.84,61.48-264.55-12.65-4.7-30.15-9.7-95.6-10.04Z"/>
                <path class="cls-44" d="m815.2,1061.2l9.95,56.28c15.99,68.83,17.51,126.21,9.21,174.65,13.74.57,28.16,1.54,43.19,3.02,18.53,1.83,36.03,4.24,52.41,7.02-8.65-70-55.23-186.25-55.23-186.25-28.09-40.55-31.44-14.16-59.54-54.71Z"/>
              </g>
              <path class="cls-46" d="m928.99,942.61c-11.27-.3-22.07,4.55-29.35,13.17l-71,84.13s-12.92-2.64-14.13-27.39c-1.21-24.75-27.5-27.73-27.5-27.73,0,0,3.79,34.51,11.01,85.59,4.13,29.21,21.4,50.53,35.43,63.45l41.07-14.14c37.68-53.86,61.07-113.22,74.07-176.58l-19.59-.51Z"/>
            </g>
            <path class="cls-12" d="m259.81,1171.5c4.73-1.24,37.07-34.65,41.93-35.58,79.71-15.19,278.66-68.77,411.82,29.46.33,2.84.54,5.1.67,6.98,1.29,1.75,3.06,4.69,5.49,9.4,12.57,24.37,27.66,48.05,44.94,70.18-3.8,3.77-6.96,8.2-9.26,13.13-32,68.54-153.29,342.26-131.97,509.65,1.1,8.64-4.78,16.61-13.41,17.8-47.08,6.51-187.3,22.39-259.74-7.52-4.22-1.74-6.91-5.88-6.85-10.44.48-33.58-.94-179.34-54.38-355.04-1.99-6.55-3.62-13.2-4.91-19.92-.66,1.35-1.28,2.69-1.91,4.03l-22.41-232.14Z"/>
            <path class="cls-66" d="m381.45,1120.73c-148.64,10.87-179.71,95.81-282.43,43.88l18.19,159.07c38.09,42.07,95.6,70.72,168.07,81.46l96.17-284.4Z"/>
          </g>
          <g>
            <path class="cls-10" d="m483.02,976.86c-25.47,50.77-36.1,102.48-39.29,150.63,5.48,2.04,78.58,52.75,127.51,3.67-10.46-33.69-8.73-84.41-6.07-136.43l-82.15-17.87Z"/>
            <g>
              <path class="cls-31" d="m615.64,843.39c1.4,2.27,37.93,174.55,37.93,174.55l-98.82,18.77-58.89-158.15s96.33-73.11,119.77-35.17Z"/>
              <path class="cls-21" d="m533.59,892.62c-2.64,3.62-3.47,8.23-2.24,12.54l24.12,84.44c.37,1.28.89,2.49,1.59,3.62,3.9,6.23,17.9,25.06,36.77,9.6,16.09-13.18,31.05-25.07,44.47-28.03,7.83-1.73,15.53,3.39,17.16,11.25,3.37,16.18,9.5,48.96,10.86,78.85.34,7.49-5.21,13.95-12.65,14.87-19.64,2.43-58.13,6.01-90.35,1.97-5.29-.66-9.77-4.17-11.69-9.15-8.46-21.9-32.4-83.18-41.83-99.44-8.75-15.1-32.01-16.53-42.71-16.34-4.06.07-7.94-1.53-10.76-4.45-8.45-8.77-21.99-28.61.97-49.89,5.71-5.29,5.94-14.32.77-20.13-9.27-10.42-17.75-27.59-.08-46.97,17.89-19.62,39.47-16.02,53.32-10.43,6.13,2.48,13.46.88,17.47-4.37,1.79-2.34,4.52-4,8.72-3.74,7.92.49,14.69-5.05,15.23-12.97.93-13.57,7.33-29.8,30.94-35.6,43.32-10.63,67.31,32.06,68.06,62.86.75,30.8-46.87,39.66-74.32,35.9-20.17-2.76-36.57,15.66-43.85,25.63Z"/>
              <path class="cls-37" d="m524.62,1005.17s-9.19-54.54-31.16-58.5c-21.97-3.96-44.62,12.91-24.45,44.11,25.09,38.81,55.61,14.39,55.61,14.39Z"/>
            </g>
          </g>
          <g>
            <path class="cls-38" d="m488.39,808.94c3.83-.16,7.99.21,12.58,1.18,10.45,2.21,24.36,7.58,20.74,17.63-5.44,15.09-33.68.99-48.71,25.32-13.25,21.43-2.4,44.71-6.46,67.81-1.97,11.24-9.19,27.92-19.23,34.49-4.49,2.93-39.94,8.55-41.88,2.26,0,0-9.85-31.97-9.85-31.98-8.86-28.76,25.19-76.69,42.75-96.07,13.57-14.97,31.96-19.88,50.07-20.62Z"/>
            <g>
              <path class="cls-27" d="m454.78,924.38l-33.91,28.23c-65.03,27.66-112.27,60.25-146.51,95.51-12.4-23.32-32.47-50.28-64.46-71.31,65.55-32.29,114.34-45.7,114.34-45.7,132.29-53.2,130.54-6.73,130.54-6.73Z"/>
              <path class="cls-43" d="m274.36,1048.12c-106.91,110.09-75.67,54.15-76.52,147.99-.32,34.99-30.68,168.58-30.68,168.58-326.95-141.24-54.1-334.04,42.74-387.88,31.99,21.03,52.06,47.99,64.46,71.31Z"/>
            </g>
          </g>
        </g>
      </g>
    </g>
  </g>
</svg>