<?xml version="1.0" encoding="UTF-8"?>
<svg id="Layer_2" data-name="Layer 2" xmlns="http://www.w3.org/2000/svg" viewBox="0 0 820 312">
  <defs>
    <style>
      .cls-1 {
        fill: none;
        stroke: #fff;
        stroke-miterlimit: 10;
      }

      .cls-2 {
        fill: #60eff3;
      }
    </style>
  </defs>
  <g id="OBJECTS">
    <g>
      <g>
        <g>
          <line class="cls-1" y1="72.15" x2="81.13" y2="72.15"/>
          <circle class="cls-1" cx="85.5" cy="72.18" r="4.25"/>
          <path class="cls-2" d="m87.15,72.18c0,.91-.74,1.64-1.64,1.64s-1.64-.74-1.64-1.64.74-1.64,1.64-1.64,1.64.74,1.64,1.64Z"/>
        </g>
        <g>
          <line class="cls-1" y1="87.52" x2="39.35" y2="87.52"/>
          <path class="cls-1" d="m47.97,87.55c0,2.35-1.9,4.25-4.25,4.25s-4.25-1.9-4.25-4.25,1.9-4.25,4.25-4.25,4.25,1.9,4.25,4.25Z"/>
          <path class="cls-2" d="m45.37,87.55c0,.91-.74,1.64-1.64,1.64s-1.64-.74-1.64-1.64.74-1.64,1.64-1.64,1.64.74,1.64,1.64Z"/>
        </g>
        <g>
          <line class="cls-1" y1="56.79" x2="45.83" y2="56.79"/>
          <path class="cls-1" d="m54.45,56.82c0,2.35-1.9,4.25-4.25,4.25s-4.25-1.9-4.25-4.25,1.9-4.25,4.25-4.25,4.25,1.9,4.25,4.25Z"/>
          <path class="cls-2" d="m51.85,56.82c0,.91-.74,1.64-1.64,1.64s-1.64-.74-1.64-1.64.74-1.64,1.64-1.64,1.64.74,1.64,1.64Z"/>
        </g>
      </g>
      <g>
        <g>
          <line class="cls-1" x1="820" y1="264.91" x2="748.83" y2="264.91"/>
          <path class="cls-1" d="m739.96,264.88c0-2.41,1.96-4.37,4.37-4.37s4.37,1.96,4.37,4.37-1.96,4.37-4.37,4.37-4.37-1.96-4.37-4.37Z"/>
          <path class="cls-2" d="m742.64,264.88c0-.93.76-1.69,1.69-1.69s1.69.76,1.69,1.69-.76,1.69-1.69,1.69-1.69-.76-1.69-1.69Z"/>
        </g>
        <g>
          <line class="cls-1" x1="820" y1="250.39" x2="748.83" y2="250.39"/>
          <path class="cls-1" d="m739.96,250.36c0-2.42,1.96-4.37,4.37-4.37s4.37,1.96,4.37,4.37-1.96,4.37-4.37,4.37-4.37-1.96-4.37-4.37Z"/>
          <path class="cls-2" d="m742.64,250.36c0-.93.76-1.69,1.69-1.69s1.69.76,1.69,1.69-.76,1.69-1.69,1.69-1.69-.76-1.69-1.69Z"/>
        </g>
        <g>
          <line class="cls-1" x1="820" y1="235.87" x2="736.01" y2="235.87"/>
          <circle class="cls-1" cx="731.51" cy="235.84" r="4.37"/>
          <path class="cls-2" d="m729.82,235.84c0-.93.76-1.69,1.69-1.69s1.69.76,1.69,1.69-.76,1.69-1.69,1.69-1.69-.76-1.69-1.69Z"/>
        </g>
      </g>
      <g>
        <g>
          <line class="cls-1" x1="644.71" x2="644.71" y2="31.26"/>
          <path class="cls-1" d="m644.68,40.13c-2.41,0-4.37-1.96-4.37-4.37s1.96-4.37,4.37-4.37,4.37,1.96,4.37,4.37-1.96,4.37-4.37,4.37Z"/>
          <path class="cls-2" d="m644.68,37.45c-.93,0-1.69-.76-1.69-1.69s.76-1.69,1.69-1.69,1.69.76,1.69,1.69-.76,1.69-1.69,1.69Z"/>
        </g>
        <g>
          <line class="cls-1" x1="630.19" x2="630.19" y2="44.08"/>
          <path class="cls-1" d="m630.16,52.95c-2.42,0-4.37-1.96-4.37-4.37s1.96-4.37,4.37-4.37,4.37,1.96,4.37,4.37-1.96,4.37-4.37,4.37Z"/>
          <path class="cls-2" d="m630.16,50.27c-.93,0-1.69-.76-1.69-1.69s.76-1.69,1.69-1.69,1.69.76,1.69,1.69-.76,1.69-1.69,1.69Z"/>
        </g>
      </g>
      <g>
        <g>
          <polyline class="cls-1" points="820 51.23 798.63 51.23 783.41 36.01"/>
          <g>
            <path class="cls-1" d="m781.13,36.65c-2.35,0-4.25-1.9-4.25-4.25s1.9-4.25,4.25-4.25,4.25,1.9,4.25,4.25-1.9,4.25-4.25,4.25Z"/>
            <path class="cls-2" d="m781.13,34.05c-.91,0-1.64-.74-1.64-1.64s.74-1.64,1.64-1.64,1.64.74,1.64,1.64-.74,1.64-1.64,1.64Z"/>
          </g>
        </g>
        <g>
          <line class="cls-1" x1="820" y1="62.87" x2="763" y2="62.87"/>
          <path class="cls-1" d="m754.38,62.84c0-2.35,1.9-4.25,4.25-4.25s4.25,1.9,4.25,4.25-1.9,4.25-4.25,4.25-4.25-1.9-4.25-4.25Z"/>
          <path class="cls-2" d="m756.98,62.84c0-.91.74-1.64,1.64-1.64s1.64.74,1.64,1.64-.74,1.64-1.64,1.64-1.64-.74-1.64-1.64Z"/>
        </g>
      </g>
      <g>
        <g>
          <polyline class="cls-1" points="164.16 312 164.16 290.63 179.38 275.41"/>
          <g>
            <path class="cls-1" d="m178.73,273.13c0-2.35,1.9-4.25,4.25-4.25s4.25,1.9,4.25,4.25-1.9,4.25-4.25,4.25-4.25-1.9-4.25-4.25Z"/>
            <path class="cls-2" d="m181.34,273.13c0-.91.74-1.64,1.64-1.64s1.64.74,1.64,1.64-.74,1.64-1.64,1.64-1.64-.74-1.64-1.64Z"/>
          </g>
        </g>
        <g>
          <line class="cls-1" x1="152.52" y1="312" x2="152.52" y2="255"/>
          <path class="cls-1" d="m152.55,246.38c2.35,0,4.25,1.9,4.25,4.25s-1.9,4.25-4.25,4.25-4.25-1.9-4.25-4.25,1.9-4.25,4.25-4.25Z"/>
          <path class="cls-2" d="m152.55,248.98c.91,0,1.64.74,1.64,1.64s-.74,1.64-1.64,1.64-1.64-.74-1.64-1.64.74-1.64,1.64-1.64Z"/>
        </g>
      </g>
      <g>
        <polyline class="cls-1" points="0 152.42 97.76 152.42 112.98 167.63"/>
        <g>
          <path class="cls-1" d="m115.27,166.99c2.35,0,4.25,1.9,4.25,4.25s-1.9,4.25-4.25,4.25-4.25-1.9-4.25-4.25,1.9-4.25,4.25-4.25Z"/>
          <path class="cls-2" d="m115.27,169.6c.91,0,1.64.74,1.64,1.64s-.74,1.64-1.64,1.64-1.64-.74-1.64-1.64.74-1.64,1.64-1.64Z"/>
        </g>
      </g>
    </g>
  </g>
</svg>